<svg id="Layer_1" data-name="Layer 1" xmlns="http://www.w3.org/2000/svg" viewBox="0 0 1644.26 1629.56"><defs><style>.cls-1{fill:#f0f;}.cls-2{fill:aqua;stroke:aqua;}.cls-2,.cls-6,.cls-7,.cls-9{stroke-miterlimit:10;}.cls-3{fill:#29abe2;}.cls-4{fill:#ff0;}.cls-5{fill:lime;}.cls-6{fill:#fff;stroke:lime;}.cls-7,.cls-8{fill:red;}.cls-7,.cls-9{stroke:#000;}.cls-10{fill:#ed1c24;}</style></defs><polygon class="cls-1" points="338.13 629.45 473.37 1183.37 816.59 1608.12 816.59 1555.77 485.24 1161.01 338.13 629.45"/><rect class="cls-2" x="409.87" y="616.37" width="387.88" height="27.31" transform="translate(-300.12 356.37) rotate(-30)"/><rect class="cls-3" x="351" y="566.6" width="296.26" height="211.46"/><rect class="cls-3" x="926.6" y="568.96" width="294.4" height="209.77"/><rect class="cls-3" x="647.22" y="666.71" width="278.78" height="30.56"/><polygon class="cls-4" points="538.76 600.06 442.82 682.87 515.36 701.35 472.53 765.62 566.69 697.36 489.18 673.63 538.76 600.06"/><polygon class="cls-4" points="1095.79 599.7 999.85 682.51 1072.39 700.99 1029.56 765.25 1123.72 697 1046.21 673.27 1095.79 599.7"/><rect class="cls-3" x="1217.84" y="599.92" width="344.36" height="32.17" transform="translate(-187.78 747.6) rotate(-30)"/><path class="cls-5" d="M90,1631.6c-2.76-1-15-5.85-20.93-18.93a35.18,35.18,0,0,1-3-16.94A14.46,14.46,0,0,0,90,1590a64,64,0,0,1-23.91-49.61c.25.41,4.09,6.45,11,6.54,5.8.08,11.24-4.13,13-10.36a140,140,0,0,1-20.93-61.38,137.78,137.78,0,0,1,2-38.86,12.13,12.13,0,0,0,6,8,11.8,11.8,0,0,0,8,1,234,234,0,0,1,12-97.64,10.92,10.92,0,0,0,19.93,8,136.76,136.76,0,0,1,7-61.78,133.23,133.23,0,0,1,13.94-27.9c-2.26,5.89-.91,12,3,15a10.76,10.76,0,0,0,7,2A56.2,56.2,0,0,0,167.72,1236a74.9,74.9,0,0,1,42.08-41.1l3.75,38.11A205.11,205.11,0,0,1,359,1173.27a59.6,59.6,0,0,0-25.91,44.84c1.42,2.07,7.53,10.49,18.93,13,16.08,3.47,28-8.08,28.9-9,.31,2.53,2,17.92-9,29.89A35.77,35.77,0,0,1,356,1262c-.75.9-10.19,12.5-7,16.94,1.1,1.51,4.72,2,12,3,4.84.65,5.57.47,8,1a30.73,30.73,0,0,1,12,5.65A52.65,52.65,0,0,0,367,1300.81c-2.75,3.51-4.16,6.32-8,10a41,41,0,0,1-10,7c-1.14,2.27-9.32,19.27-1,36.86A41,41,0,0,0,365,1372.55q-6.84,2.81-13.95,6-8.82,3.95-16.94,8a29.72,29.72,0,0,0,2,13c6.87,17.11,28.06,20.64,29.89,20.92a66.08,66.08,0,0,1-15.94,13,67.72,67.72,0,0,1-33.88,9,44.78,44.78,0,0,0,19.93,15.94c15.61,6.24,29.55,1.29,32.88,0a74,74,0,0,1-19.93,22.92c-19.4,14.63-40.44,15.12-47.82,14.95.65,2.33,3.93,13.14,13.95,17.93,11.71,5.6,28.06.8,37.86-13-6.34,10.11-25.05,36.82-58.79,45.83a88.79,88.79,0,0,1-22.91,3,24.32,24.32,0,0,0,10,9c11.85,5.63,23.77-1.31,24.91-2-5.67,3.36-11.64,6.7-17.93,10a372.3,372.3,0,0,1-42.85,18.93,11.48,11.48,0,0,0,6,5,11.92,11.92,0,0,0,12-3,92.77,92.77,0,0,1-15,11c-22.94,13.51-46.3,13.84-58.78,13a16.26,16.26,0,0,0,8,7,16.46,16.46,0,0,0,11.95,0c.07.42.9,6.73-4,11a12.15,12.15,0,0,1-12.54,2,126.11,126.11,0,0,0-54.95,0A73.24,73.24,0,0,0,96,1659.5a47,47,0,0,0,0-9A48.33,48.33,0,0,0,90,1631.6Z" transform="translate(-66 -29.94)"/><path class="cls-6" d="M101,1644.55a83.77,83.77,0,0,1,0-62.21,54.27,54.27,0,0,1,9-9.52c3-2.54,4.73-3.36,8-6a61.23,61.23,0,0,0,9-9c-12.68-1.8-16.73-5.62-17.93-9-1.87-5.2,3.08-9.34,3-16.94-.1-8-5.75-14.56-11-19.06,1.43-.7,11.47-5.76,14-16.8,2.37-10.58-3.18-22.24-14-28.23l10-10.63c8.4.29,11.85-2.81,13-4,6.48-6.91,3.9-23.73-10-39.57l17.94,8.68,8.53-6a68.52,68.52,0,0,0,11.39-25.91,70.34,70.34,0,0,0-5-42.84l8,6c10.59,3.94,21.18.25,24.91-7,3.07-5.93.6-12.48,0-14a14.63,14.63,0,0,1,3-20.92,36.77,36.77,0,0,0,13,15.94,35.75,35.75,0,0,0,11,5,25.39,25.39,0,0,0,16.94-9c7.32-9,5.28-19.54,5-20.92a57.39,57.39,0,0,0,33.88-19.93V1300c.25.64,3.07,7.69,9,8.81,6.31,1.19,14.44-4.73,15.94-15l5,15c-.59,3.61.43,5.28,1,6,2.9,3.52,11.48,2.88,20.92-3a34.4,34.4,0,0,1-12.95,19.92,33.21,33.21,0,0,1-15,6,17.8,17.8,0,0,0,1,13.95c4.31,8,13.27,8.91,14,9a36,36,0,0,1-10,13,36.47,36.47,0,0,1-19.93,8,9.59,9.59,0,0,0,3,7,9.75,9.75,0,0,0,11,1,26.24,26.24,0,0,1-5,8c-7.91,8.63-19.21,9-21.92,9a24.88,24.88,0,0,0,6,9c7.33,7,16.64,7,18.93,7a31.67,31.67,0,0,1-6,16.94c-9.32,12.63-24.94,13-26.91,13a21.65,21.65,0,0,0,8,9,22.55,22.55,0,0,0,17.07,2.49,115.82,115.82,0,0,0-55.93,45.34,41.89,41.89,0,0,0,21.92,1A79.82,79.82,0,0,1,199.6,1532a10.68,10.68,0,0,0,5,5,11.11,11.11,0,0,0,9,0,159.43,159.43,0,0,0-33.88,32.88l7,2a45.09,45.09,0,0,0-24.91,20.92l3,6a99.9,99.9,0,0,0-29.89,12A101.26,101.26,0,0,0,101,1644.55Z" transform="translate(-66 -29.94)"/><path class="cls-7" d="M429.22,1602.05" transform="translate(-66 -29.94)"/><polygon class="cls-8" points="315 1614.27 353.43 1473.05 482.88 1344.58 482.88 1518.16 398.94 1518.16 315 1614.27"/><path class="cls-9" d="M633.37,1611.62" transform="translate(-66 -29.94)"/><polygon class="cls-8" points="650.76 1614.27 612.33 1473.05 482.88 1344.58 482.88 1518.16 566.82 1518.16 650.76 1614.27"/><rect class="cls-3" x="1175" y="1224.38" width="55" height="387.88"/><polygon class="cls-4" points="1571.77 1147.06 1322.72 1386.26 1511.02 1439.64 1399.86 1625.27 1644.26 1428.12 1443.08 1359.57 1571.77 1147.06"/><polygon class="cls-1" points="1295.88 629.06 1160.63 1182.98 817.42 1607.73 817.42 1555.38 1148.77 1160.63 1295.88 629.06"/><polygon class="cls-10" points="729.69 1273.74 749.79 1207.36 817.5 1146.97 817.5 1228.56 773.6 1228.56 729.69 1273.74"/><path class="cls-9" d="M940,1028" transform="translate(-66 -29.94)"/><polygon class="cls-10" points="905.31 1273.74 885.21 1207.36 817.5 1146.97 817.5 1228.56 861.4 1228.56 905.31 1273.74"/><path class="cls-5" d="M354.61,404.36c-2-5.58-10.27-30.78,4.52-56.22,7.85-13.5,19-21.51,25.58-25.53a29.62,29.62,0,0,0,16.58,28.77c11.93,5.91,24.07,2.44,26.23,1.79a119,119,0,0,1,18.11-60.71,133.59,133.59,0,0,1,36.06-37.94c-.38.9-5.69,14.38,3.54,25.3,7.81,9.23,22.63,12.61,35.87,7.65A278,278,0,0,1,600,179a308.27,308.27,0,0,1,70.8-44.65c-1,1.1-7.91,8.8-5.79,19.21,1.62,7.93,7.46,12.52,9.17,13.78A525.59,525.59,0,0,1,790,93.66a551.74,551.74,0,0,1,71.61-27.55c-9.89,4.74-15.06,14.71-12.76,24.12,2.54,10.38,13.65,17.85,26.07,17a310.34,310.34,0,0,1,117.75-65,325.16,325.16,0,0,1,68-12.35c-13.4,3.68-22.21,13.28-22.09,23.08.08,6.47,4,11.3,6,13.43a139.25,139.25,0,0,0,60.22-1.86,129.69,129.69,0,0,0,49.08-24.36,185.49,185.49,0,0,1,69.93-3.63,179,179,0,0,1,59.66,19.32L1221.8,108.7c41.27,4.72,112.76,17.93,187.41,60.38a442.33,442.33,0,0,1,116.39,95.08,148.74,148.74,0,0,0-67.41-3.18,141.11,141.11,0,0,0-46.58,17.54c-1.68,4.78-8.08,24.76,3.22,45.73,15.93,29.58,52.49,34.16,55.25,34.46-4,3.6-28.7,25.11-64.63,22.64a85,85,0,0,1-39.27-12.84c-2.61-.06-35.83-.67-39.21,9.86-1.16,3.59,2.94,9.89,11.12,22.49,5.48,8.43,6.8,9.36,9.17,13.77a56.11,56.11,0,0,1,6.46,25.77,128.88,128.88,0,0,0-40.61-6.85c-9.92,0-16.75,1.23-28.36-.29a97.81,97.81,0,0,1-25.85-7.11c-5.54,1-46.52,9-65.94,43.77a74.43,74.43,0,0,0-8.23,48.72q-14.28-7.31-29.57-14.6-19-9-37.14-16.86a62.67,62.67,0,0,0-20,19.06c-20.57,31.86,2.23,69.56,4.26,72.79a160.9,160.9,0,0,1-44.51-9.17,149.53,149.53,0,0,1-62.07-42.29,80.69,80.69,0,0,0-.65,51c10.43,32.24,38.17,48.09,45,51.76a182.55,182.55,0,0,1-67.42-3.19A171.45,171.45,0,0,1,881,570.21c-3.2,3.9-17.64,22.36-12.32,44,6.21,25.32,37,45.15,74.5,43.66-26.39,2.46-98.78,5.85-160.73-36.16a189.09,189.09,0,0,1-36.6-32.4A44,44,0,0,0,743.82,616c6.34,25.57,34.8,35.81,37.58,36.76q-20.46-7.18-42-16a857.65,857.65,0,0,1-91.79-44.16,20.68,20.68,0,0,0-.55,15.54c3.09,8,11.47,13.79,21.6,15.15A225.28,225.28,0,0,1,629,613.3c-55.06-19.49-87.6-55.86-103.14-76.61a29.55,29.55,0,0,0-1.31,21.13c3.83,11.89,14.06,17.6,16.36,18.82-.64.61-10.56,9.68-24.65,7.2-9.86-1.73-17.86-8.44-20.65-17.28a248.32,248.32,0,0,0-28.06-42,267,267,0,0,0-47.14-44.53,169,169,0,0,0-49.18-24.24,180,180,0,0,0-57.32-7.74,103.47,103.47,0,0,0,15.71-11A96.64,96.64,0,0,0,354.61,404.36Z" transform="translate(-66 -29.94)"/><path class="cls-6" d="M346.92,437.54a174,174,0,0,1,44.17-46.17A195.51,195.51,0,0,1,455.89,361a134.49,134.49,0,0,1,29,2.39c8.6,1.68,12.36,3.33,21.38,5.2a151.44,151.44,0,0,0,28,3.09c-14.21-22.19-13.05-33.25-8.84-39.26,6.56-9.35,20.59-6.65,33.76-16.13,13.92-10,17.64-27,18.41-40.7,3.17,1.4,25.79,11,48.52,1.29a51.5,51.5,0,0,0,30.35-56.67l32.26,2.61c11,13.59,21.12,15.2,24.7,15.49,21,1.7,46.92-23,55.68-64.35q4.66,19.45,9.34,38.91L800.54,219a166.25,166.25,0,0,0,61-13.93,148.75,148.75,0,0,0,68.23-60.53q.21,9.94.43,19.9c7.61,21.51,28.55,33.64,46.31,30.63,14.6-2.46,22.68-14.41,24.43-17.15A30.17,30.17,0,0,1,1016,159.72c11.87-6.26,23.66-3.36,25.64-2.84-4,6.51-11.58,21-10.2,40a65.34,65.34,0,0,0,6.27,23.37,59.07,59.07,0,0,0,38.89,15.64A59.76,59.76,0,0,0,1120.09,218a130.17,130.17,0,0,0,33.65,19.31,140.88,140.88,0,0,0,47.62,9.51l-29.95,21c-.78,1.17-9.28,14.3-3.16,25,6.54,11.4,28,16.93,48,6.72l-19.37,26.22c-7.14,3.51-8.67,7.17-9.1,8.92-2.22,8.9,10.66,21.62,33.87,29.26-6,2.53-27.29,10.64-52.63,4.12a76,76,0,0,1-30.93-16.18c-2.35.71-16.48,5.22-23.07,18.73-8.12,16.63,2.55,31.84,3.38,33a88.84,88.84,0,0,1-36.32.25,83.2,83.2,0,0,1-41.24-21.57c-1.14.81-7.57,5.5-8.12,13.29-.54,7.57,4.72,15,13.25,18.47a64.23,64.23,0,0,1-20.78,2c-25.93-1.83-42-19.21-45.71-23.47A46.48,46.48,0,0,0,972,412.93c-2.2,20.11,10.46,34.83,13.69,38.37a75.55,75.55,0,0,1-37.85,11.42c-34.86.87-56.8-23.33-59.51-26.41a39.58,39.58,0,0,0-4.8,23.57c2.1,17.73,16.17,28,19,29.95a273.41,273.41,0,0,0-65.42-25.14,286.63,286.63,0,0,0-90.54-7.16,81.45,81.45,0,0,0,12.87,21.27,88.5,88.5,0,0,0,15.38,14.46,193.54,193.54,0,0,1-50.34-12.64,180.88,180.88,0,0,1-45.32-26.27,19.48,19.48,0,0,0-1.91,14c2.33,9.26,11,13.49,12.27,14.11a392,392,0,0,0-60-10.88,396.07,396.07,0,0,0-43.9-2q3,6.72,6.05,13.43a106.81,106.81,0,0,0-29.94-11.81,112.17,112.17,0,0,0-40.8-1.66l-6.38,12.05a228.82,228.82,0,0,0-61.85-32.34C408,433.93,368.39,435.32,346.92,437.54Z" transform="translate(-66 -29.94)"/><polygon class="cls-4" points="843.04 856.07 713.07 968.25 811.34 993.29 753.32 1080.35 880.88 987.88 775.88 955.73 843.04 856.07"/></svg>